<mxfile host="app.diagrams.net" modified="2022-10-09T02:28:37.044Z" agent="5.0 (Macintosh; Intel Mac OS X 10_15_7) AppleWebKit/605.1.15 (KHTML, like Gecko) Version/14.1.2 Safari/605.1.15" etag="i3ucVEgsJ0utWbygkgx-" version="20.4.0" type="github">
  <diagram id="zloy9zrLZ1wWkiFGT145" name="Page-1">
    <mxGraphModel dx="4807" dy="2150" grid="1" gridSize="10" guides="0" tooltips="1" connect="1" arrows="1" fold="1" page="1" pageScale="1" pageWidth="827" pageHeight="1169" math="0" shadow="0">
      <root>
        <mxCell id="0" />
        <mxCell id="1" parent="0" />
        <mxCell id="tNd2uU0bsCmuSxHjag_w-1" value="" style="group;movable=0;resizable=0;rotatable=0;deletable=0;editable=0;connectable=0;" parent="1" vertex="1" connectable="0">
          <mxGeometry x="70" y="110" width="1004.51" height="471.2244897959184" as="geometry" />
        </mxCell>
        <mxCell id="j9J7J6AVy67X-4ACV26y-58" value="" style="group;movable=1;resizable=1;rotatable=1;deletable=1;editable=1;connectable=1;" parent="1" vertex="1" connectable="0">
          <mxGeometry x="-1180" y="220" width="2491.04" height="1982" as="geometry" />
        </mxCell>
        <mxCell id="g0LO9RkxO_SY6n_rTV94-4" value="" style="group" vertex="1" connectable="0" parent="j9J7J6AVy67X-4ACV26y-58">
          <mxGeometry x="-362" y="-90" width="1500" height="820" as="geometry" />
        </mxCell>
        <mxCell id="j9J7J6AVy67X-4ACV26y-21" style="edgeStyle=orthogonalEdgeStyle;rounded=0;orthogonalLoop=1;jettySize=auto;html=1;fontSize=15;fontColor=#4D4D4D;endArrow=block;endFill=1;" parent="g0LO9RkxO_SY6n_rTV94-4" source="j9J7J6AVy67X-4ACV26y-24" edge="1">
          <mxGeometry relative="1" as="geometry">
            <mxPoint x="326.53058963077586" y="53.7704918032787" as="targetPoint" />
            <mxPoint x="479.59181707023987" y="295.7377049180328" as="sourcePoint" />
            <Array as="points">
              <mxPoint x="438.7754897530494" y="322.6229508196721" />
              <mxPoint x="438.7754897530494" y="53.7704918032787" />
            </Array>
          </mxGeometry>
        </mxCell>
        <mxCell id="j9J7J6AVy67X-4ACV26y-15" value="" style="rounded=0;whiteSpace=wrap;html=1;dashed=1;labelBackgroundColor=#007FFF;strokeWidth=2;fontSize=15;fontColor=#FFFFFF;fillColor=none;" parent="g0LO9RkxO_SY6n_rTV94-4" vertex="1">
          <mxGeometry x="30.6122165811454" y="201.63934426229503" width="285.7142912203328" height="282.2950819672131" as="geometry" />
        </mxCell>
        <mxCell id="j9J7J6AVy67X-4ACV26y-18" style="edgeStyle=orthogonalEdgeStyle;rounded=0;orthogonalLoop=1;jettySize=auto;html=1;fontSize=15;fontColor=#4D4D4D;" parent="g0LO9RkxO_SY6n_rTV94-4" source="j9J7J6AVy67X-4ACV26y-4" edge="1">
          <mxGeometry relative="1" as="geometry">
            <mxPoint x="173.46936219131186" y="188.1967213114754" as="targetPoint" />
          </mxGeometry>
        </mxCell>
        <mxCell id="j9J7J6AVy67X-4ACV26y-16" style="edgeStyle=orthogonalEdgeStyle;rounded=0;orthogonalLoop=1;jettySize=auto;html=1;fontSize=15;fontColor=#FFFFFF;" parent="g0LO9RkxO_SY6n_rTV94-4" source="j9J7J6AVy67X-4ACV26y-5" edge="1">
          <mxGeometry relative="1" as="geometry">
            <mxPoint x="173.46936219131186" y="618.360655737705" as="targetPoint" />
          </mxGeometry>
        </mxCell>
        <mxCell id="j9J7J6AVy67X-4ACV26y-6" value="Docker Host" style="shape=hexagon;perimeter=hexagonPerimeter2;whiteSpace=wrap;html=1;fixedSize=1;fontSize=18;fillColor=#007FFF;fontColor=#FFFFFF;" parent="g0LO9RkxO_SY6n_rTV94-4" vertex="1">
          <mxGeometry x="71.42854389833586" y="537.704918032787" width="204.08163658595203" height="67.21311475409837" as="geometry" />
        </mxCell>
        <mxCell id="j9J7J6AVy67X-4ACV26y-10" value="Container" style="rhombus;whiteSpace=wrap;html=1;fontSize=15;fillColor=#00FFFF;" parent="g0LO9RkxO_SY6n_rTV94-4" vertex="1">
          <mxGeometry x="193.87752584990696" y="318.5901639344262" width="112.2449001222736" height="80.65573770491802" as="geometry" />
        </mxCell>
        <mxCell id="j9J7J6AVy67X-4ACV26y-11" value="Container" style="rhombus;whiteSpace=wrap;html=1;fontSize=15;fillColor=#00FFFF;" parent="g0LO9RkxO_SY6n_rTV94-4" vertex="1">
          <mxGeometry x="122.44895304482387" y="372.36065573770486" width="112.2449001222736" height="80.65573770491802" as="geometry" />
        </mxCell>
        <mxCell id="j9J7J6AVy67X-4ACV26y-12" value="Container" style="rhombus;whiteSpace=wrap;html=1;fontSize=15;fillColor=#00FFFF;" parent="g0LO9RkxO_SY6n_rTV94-4" vertex="1">
          <mxGeometry x="40.81629841044295" y="318.5901639344262" width="112.2449001222736" height="80.65573770491802" as="geometry" />
        </mxCell>
        <mxCell id="j9J7J6AVy67X-4ACV26y-13" value="Container" style="rhombus;whiteSpace=wrap;html=1;fontSize=15;fillColor=#00FFFF;" parent="g0LO9RkxO_SY6n_rTV94-4" vertex="1">
          <mxGeometry x="122.44895304482387" y="264.81967213114757" width="112.2449001222736" height="80.65573770491802" as="geometry" />
        </mxCell>
        <mxCell id="j9J7J6AVy67X-4ACV26y-20" value="Docker Engine" style="text;html=1;strokeColor=none;fillColor=none;align=center;verticalAlign=middle;whiteSpace=wrap;rounded=0;dashed=1;labelBackgroundColor=none;strokeWidth=2;fontSize=15;fontColor=#4D4D4D;" parent="g0LO9RkxO_SY6n_rTV94-4" vertex="1">
          <mxGeometry x="5.102012007901256" y="200.29508196721315" width="346.93878219611844" height="40.32786885245901" as="geometry" />
        </mxCell>
        <mxCell id="j9J7J6AVy67X-4ACV26y-23" value="" style="endArrow=classic;html=1;rounded=0;fontSize=15;fontColor=#4D4D4D;edgeStyle=orthogonalEdgeStyle;" parent="g0LO9RkxO_SY6n_rTV94-4" source="j9J7J6AVy67X-4ACV26y-24" edge="1">
          <mxGeometry width="50" height="50" relative="1" as="geometry">
            <mxPoint x="479.59181707023987" y="389.8360655737705" as="sourcePoint" />
            <mxPoint x="326.53058963077586" y="793.1147540983608" as="targetPoint" />
            <Array as="points">
              <mxPoint x="438.7754897530494" y="336.06557377049177" />
              <mxPoint x="438.7754897530494" y="793.1147540983608" />
            </Array>
          </mxGeometry>
        </mxCell>
        <mxCell id="j9J7J6AVy67X-4ACV26y-30" style="edgeStyle=orthogonalEdgeStyle;rounded=0;orthogonalLoop=1;jettySize=auto;html=1;fontSize=24;fontColor=#FFFFFF;endArrow=block;endFill=1;" parent="g0LO9RkxO_SY6n_rTV94-4" source="j9J7J6AVy67X-4ACV26y-24" edge="1">
          <mxGeometry relative="1" as="geometry">
            <mxPoint x="928.5714175593343" y="324.639344262295" as="targetPoint" />
          </mxGeometry>
        </mxCell>
        <mxCell id="j9J7J6AVy67X-4ACV26y-24" value="&lt;font color=&quot;#ffffff&quot;&gt;&lt;span style=&quot;font-size: 19px;&quot;&gt;Prometheus&lt;/span&gt;&lt;br&gt;&lt;font style=&quot;font-size: 13px;&quot;&gt;Metric Database&lt;/font&gt;&lt;/font&gt;" style="ellipse;whiteSpace=wrap;html=1;dashed=1;labelBackgroundColor=none;strokeWidth=2;fontSize=15;fontColor=#4D4D4D;fillColor=#FF3399;strokeColor=none;" parent="g0LO9RkxO_SY6n_rTV94-4" vertex="1">
          <mxGeometry x="459.1836534116445" y="240.6229508196721" width="224.4898002445472" height="168.0327868852459" as="geometry" />
        </mxCell>
        <mxCell id="j9J7J6AVy67X-4ACV26y-25" value="scrape metrics" style="text;html=1;strokeColor=none;fillColor=none;align=center;verticalAlign=middle;whiteSpace=wrap;rounded=0;dashed=1;labelBackgroundColor=default;strokeWidth=2;fontSize=18;fontColor=#4D4D4D;" parent="g0LO9RkxO_SY6n_rTV94-4" vertex="1">
          <mxGeometry x="263.42377798507977" y="699.0163934426231" width="346.93878219611844" height="40.32786885245901" as="geometry" />
        </mxCell>
        <mxCell id="j9J7J6AVy67X-4ACV26y-26" value="scrape metrics" style="text;html=1;strokeColor=none;fillColor=none;align=center;verticalAlign=middle;whiteSpace=wrap;rounded=0;dashed=1;labelBackgroundColor=default;strokeWidth=2;fontSize=18;fontColor=#4D4D4D;" parent="g0LO9RkxO_SY6n_rTV94-4" vertex="1">
          <mxGeometry x="263.4278249297147" y="67.21311475409838" width="346.93878219611844" height="40.32786885245901" as="geometry" />
        </mxCell>
        <mxCell id="j9J7J6AVy67X-4ACV26y-28" style="edgeStyle=orthogonalEdgeStyle;rounded=0;orthogonalLoop=1;jettySize=auto;html=1;fontSize=24;fontColor=#FFFFFF;endArrow=block;endFill=1;" parent="g0LO9RkxO_SY6n_rTV94-4" source="j9J7J6AVy67X-4ACV26y-27" edge="1">
          <mxGeometry relative="1" as="geometry">
            <mxPoint x="568.335531562998" y="228.1282051282051" as="targetPoint" />
            <Array as="points">
              <mxPoint x="568.335531562998" y="60.97435897435897" />
              <mxPoint x="568.335531562998" y="228.1282051282051" />
            </Array>
          </mxGeometry>
        </mxCell>
        <mxCell id="j9J7J6AVy67X-4ACV26y-27" value="&lt;font color=&quot;#ffffff&quot;&gt;&lt;font style=&quot;font-size: 24px;&quot;&gt;Grafana&lt;/font&gt;&lt;br&gt;Visualize metrics&lt;/font&gt;" style="rounded=1;whiteSpace=wrap;html=1;dashed=1;labelBackgroundColor=none;strokeWidth=2;fontSize=13;fillColor=#f0a30a;strokeColor=none;fontColor=#000000;" parent="g0LO9RkxO_SY6n_rTV94-4" vertex="1">
          <mxGeometry x="683.6734536561919" width="204.08163658595203" height="120.98360655737706" as="geometry" />
        </mxCell>
        <mxCell id="j9J7J6AVy67X-4ACV26y-29" value="Query" style="text;html=1;strokeColor=none;fillColor=none;align=center;verticalAlign=middle;whiteSpace=wrap;rounded=0;dashed=1;labelBackgroundColor=default;strokeWidth=2;fontSize=18;fontColor=#4D4D4D;" parent="g0LO9RkxO_SY6n_rTV94-4" vertex="1">
          <mxGeometry x="398.09300067628294" y="120.98757040773435" width="346.93878219611844" height="40.32786885245901" as="geometry" />
        </mxCell>
        <mxCell id="j9J7J6AVy67X-4ACV26y-31" value="Push" style="text;html=1;strokeColor=none;fillColor=none;align=center;verticalAlign=middle;whiteSpace=wrap;rounded=0;dashed=1;labelBackgroundColor=default;strokeWidth=2;fontSize=18;fontColor=#4D4D4D;" parent="g0LO9RkxO_SY6n_rTV94-4" vertex="1">
          <mxGeometry x="642.8571263390014" y="302.1643127364439" width="346.93878219611844" height="40.32786885245901" as="geometry" />
        </mxCell>
        <mxCell id="j9J7J6AVy67X-4ACV26y-33" style="edgeStyle=orthogonalEdgeStyle;rounded=0;orthogonalLoop=1;jettySize=auto;html=1;fontSize=16;fontColor=#FFFFFF;endArrow=block;endFill=1;" parent="g0LO9RkxO_SY6n_rTV94-4" source="j9J7J6AVy67X-4ACV26y-32" edge="1">
          <mxGeometry relative="1" as="geometry">
            <mxPoint x="1336.734690731238" y="321.27868852459017" as="targetPoint" />
          </mxGeometry>
        </mxCell>
        <mxCell id="j9J7J6AVy67X-4ACV26y-32" value="Alert Manager&lt;br&gt;&lt;font style=&quot;font-size: 16px;&quot;&gt;send notification&lt;/font&gt;" style="shape=hexagon;perimeter=hexagonPerimeter2;whiteSpace=wrap;html=1;fixedSize=1;dashed=1;labelBackgroundColor=none;strokeWidth=2;fontSize=24;fontColor=#ffffff;fillColor=#76608a;strokeColor=none;" parent="g0LO9RkxO_SY6n_rTV94-4" vertex="1">
          <mxGeometry x="938.7754993886317" y="240.6229508196721" width="214.28571841524956" height="161.31147540983605" as="geometry" />
        </mxCell>
        <mxCell id="j9J7J6AVy67X-4ACV26y-34" value="" style="endArrow=classic;html=1;rounded=0;fontSize=16;fontColor=#FFFFFF;edgeStyle=orthogonalEdgeStyle;" parent="g0LO9RkxO_SY6n_rTV94-4" edge="1">
          <mxGeometry width="50" height="50" relative="1" as="geometry">
            <mxPoint x="1255.1020360968573" y="318.5901639344262" as="sourcePoint" />
            <mxPoint x="1336.734690731238" y="161.31147540983605" as="targetPoint" />
            <Array as="points">
              <mxPoint x="1255.1020360968573" y="161.31147540983605" />
            </Array>
          </mxGeometry>
        </mxCell>
        <mxCell id="j9J7J6AVy67X-4ACV26y-35" value="" style="endArrow=classic;html=1;rounded=0;fontSize=16;fontColor=#FFFFFF;edgeStyle=orthogonalEdgeStyle;" parent="g0LO9RkxO_SY6n_rTV94-4" edge="1">
          <mxGeometry width="50" height="50" relative="1" as="geometry">
            <mxPoint x="1255.1020360968573" y="309.1803278688525" as="sourcePoint" />
            <mxPoint x="1336.734690731238" y="483.93442622950823" as="targetPoint" />
            <Array as="points">
              <mxPoint x="1255.1020360968573" y="483.93442622950823" />
              <mxPoint x="1336.734690731238" y="483.93442622950823" />
            </Array>
          </mxGeometry>
        </mxCell>
        <mxCell id="j9J7J6AVy67X-4ACV26y-36" value="Slack" style="rounded=1;whiteSpace=wrap;html=1;labelBackgroundColor=none;strokeWidth=2;fontSize=16;fillColor=#cdeb8b;strokeColor=default;" parent="g0LO9RkxO_SY6n_rTV94-4" vertex="1">
          <mxGeometry x="1377.551018048429" y="120.98360655737706" width="122.44898195157121" height="80.65573770491802" as="geometry" />
        </mxCell>
        <mxCell id="j9J7J6AVy67X-4ACV26y-37" value="Email" style="rounded=1;whiteSpace=wrap;html=1;labelBackgroundColor=none;strokeWidth=2;fontSize=16;fillColor=#cdeb8b;strokeColor=default;" parent="g0LO9RkxO_SY6n_rTV94-4" vertex="1">
          <mxGeometry x="1377.551018048429" y="280.95081967213116" width="122.44898195157121" height="80.65573770491802" as="geometry" />
        </mxCell>
        <mxCell id="j9J7J6AVy67X-4ACV26y-38" value="Pushover" style="rounded=1;whiteSpace=wrap;html=1;labelBackgroundColor=none;strokeWidth=2;fontSize=16;fillColor=#cdeb8b;strokeColor=default;" parent="g0LO9RkxO_SY6n_rTV94-4" vertex="1">
          <mxGeometry x="1377.551018048429" y="430.1639344262295" width="122.44898195157121" height="80.65573770491802" as="geometry" />
        </mxCell>
        <mxCell id="j9J7J6AVy67X-4ACV26y-39" value="sending" style="text;html=1;strokeColor=none;fillColor=none;align=center;verticalAlign=middle;whiteSpace=wrap;rounded=0;dashed=1;labelBackgroundColor=default;strokeWidth=2;fontSize=18;fontColor=#4D4D4D;labelBorderColor=none;" parent="g0LO9RkxO_SY6n_rTV94-4" vertex="1">
          <mxGeometry x="1084.987562101088" y="301.117166876839" width="346.93878219611844" height="40.32786885245901" as="geometry" />
        </mxCell>
        <mxCell id="j9J7J6AVy67X-4ACV26y-17" value="collect os metrics" style="text;html=1;strokeColor=none;fillColor=none;align=center;verticalAlign=middle;whiteSpace=wrap;rounded=0;dashed=1;labelBackgroundColor=default;strokeWidth=2;fontSize=18;fontColor=#4D4D4D;" parent="g0LO9RkxO_SY6n_rTV94-4" vertex="1">
          <mxGeometry x="30.612679089103665" y="651.7948717948717" width="287.9690175168915" height="31.538461538461533" as="geometry" />
        </mxCell>
        <mxCell id="j9J7J6AVy67X-4ACV26y-43" value="collect containers metrics" style="text;html=1;strokeColor=none;fillColor=none;align=center;verticalAlign=middle;whiteSpace=wrap;rounded=0;dashed=1;labelBackgroundColor=default;strokeWidth=2;fontSize=18;fontColor=#4D4D4D;" parent="g0LO9RkxO_SY6n_rTV94-4" vertex="1">
          <mxGeometry y="107.54098360655738" width="346.93878219611844" height="40.32786885245901" as="geometry" />
        </mxCell>
        <mxCell id="j9J7J6AVy67X-4ACV26y-5" value="Node Exporter" style="rounded=1;whiteSpace=wrap;html=1;fontSize=18;fillColor=#e1d5e7;strokeColor=#9673a6;" parent="g0LO9RkxO_SY6n_rTV94-4" vertex="1">
          <mxGeometry x="30.6122165811454" y="739.3442622950819" width="285.7142912203328" height="80.65573770491802" as="geometry" />
        </mxCell>
        <mxCell id="j9J7J6AVy67X-4ACV26y-4" value="cAdvisor" style="rounded=1;whiteSpace=wrap;html=1;fontSize=18;fillColor=#e1d5e7;strokeColor=#9673a6;" parent="g0LO9RkxO_SY6n_rTV94-4" vertex="1">
          <mxGeometry x="30.6122165811454" y="13.44262295081966" width="285.7142912203328" height="80.65573770491802" as="geometry" />
        </mxCell>
        <mxCell id="j9J7J6AVy67X-4ACV26y-3" value="Monitoring-Architecture Container by : chandrafebrian99@gmail.com" style="text;html=1;strokeColor=none;fillColor=none;align=center;verticalAlign=middle;whiteSpace=wrap;rounded=0;fontSize=25;" parent="1" vertex="1">
          <mxGeometry x="-1632" y="40" width="1054.6305217391305" height="40.61475409836065" as="geometry" />
        </mxCell>
        <mxCell id="j9J7J6AVy67X-4ACV26y-54" value="&lt;div style=&quot;text-align: left; font-size: 18px;&quot;&gt;&lt;font style=&quot;font-size: 18px;&quot;&gt;&lt;br style=&quot;font-size: 18px;&quot;&gt;&lt;/font&gt;&lt;/div&gt;&lt;div style=&quot;text-align: left; font-size: 18px;&quot;&gt;&lt;font style=&quot;font-size: 18px;&quot;&gt;Q : Explain Advantage and disadvantage&lt;/font&gt;&lt;/div&gt;&lt;div style=&quot;text-align: left; font-size: 18px;&quot;&gt;&lt;font style=&quot;font-size: 18px;&quot;&gt;&lt;br style=&quot;font-size: 18px;&quot;&gt;&lt;/font&gt;&lt;/div&gt;&lt;span style=&quot;font-family: &amp;quot;Helvetica Neue&amp;quot;; font-size: 18px;&quot;&gt;&lt;div style=&quot;text-align: left; font-size: 18px;&quot;&gt;&lt;span style=&quot;font-family: Helvetica; font-size: 18px;&quot;&gt;&lt;font style=&quot;font-size: 18px;&quot;&gt;A: &amp;nbsp;Advantage :&amp;nbsp;&lt;/font&gt;&lt;/span&gt;&lt;/div&gt;&lt;div style=&quot;text-align: left; font-size: 18px;&quot;&gt;&lt;span style=&quot;font-size: 18px; text-align: center;&quot;&gt;This monitoring architecture design, easy to maintain, scalable provides a lot of information about metrics collection quickly so that you can make decisions in the future, stable and reliable&lt;/span&gt;&lt;/div&gt;&lt;/span&gt;&lt;span style=&quot;font-family: &amp;quot;Helvetica Neue&amp;quot;; font-size: 18px;&quot;&gt;&lt;div style=&quot;text-align: left; font-size: 18px;&quot;&gt;&lt;br style=&quot;font-size: 18px;&quot;&gt;&lt;/div&gt;&lt;div style=&quot;text-align: left; font-size: 18px;&quot;&gt;&lt;span style=&quot;font-family: Helvetica; font-size: 18px;&quot;&gt;&lt;font style=&quot;font-size: 18px;&quot;&gt;&amp;nbsp;disAdvantage :&amp;nbsp;&lt;/font&gt;&lt;/span&gt;&lt;/div&gt;&lt;div style=&quot;text-align: left; font-size: 18px;&quot;&gt;&lt;font style=&quot;font-size: 18px;&quot;&gt;&lt;span style=&quot;font-family: Helvetica; font-size: 18px;&quot;&gt;-&amp;nbsp;&lt;/span&gt;&lt;span style=&quot;text-align: center; font-size: 18px;&quot;&gt;It is limited on the reporting type supported, which is important for managerial-level officers who want reports that are either general or specific.&lt;/span&gt;&lt;/font&gt;&lt;/div&gt;&lt;div style=&quot;text-align: left; font-size: 18px;&quot;&gt;&lt;span style=&quot;text-align: center; font-size: 18px;&quot;&gt;&lt;font style=&quot;font-size: 18px;&quot;&gt;&lt;br style=&quot;font-size: 18px;&quot;&gt;&lt;/font&gt;&lt;/span&gt;&lt;/div&gt;&lt;div style=&quot;text-align: left; font-size: 18px;&quot;&gt;&lt;font style=&quot;font-size: 18px;&quot;&gt;-&amp;nbsp;Trigger limits are difficult to see in a graph.&lt;/font&gt;&lt;/div&gt;&lt;div style=&quot;text-align: left; font-size: 18px;&quot;&gt;&lt;font style=&quot;font-size: 18px;&quot;&gt;&lt;br style=&quot;font-size: 18px;&quot;&gt;&lt;/font&gt;&lt;/div&gt;&lt;div style=&quot;text-align: left; font-size: 18px;&quot;&gt;&lt;font style=&quot;font-size: 18px;&quot;&gt;-&amp;nbsp;If there was an issue on one node, we couldn&#39;t drill down and see all the issues on other nodes.&lt;/font&gt;&lt;/div&gt;&lt;div style=&quot;text-align: left; font-size: 18px;&quot;&gt;&lt;span style=&quot;text-align: center; font-size: 18px;&quot;&gt;&lt;br style=&quot;font-size: 18px;&quot;&gt;&lt;/span&gt;&lt;/div&gt;&lt;/span&gt;" style="text;html=1;strokeColor=none;fillColor=none;align=center;verticalAlign=middle;whiteSpace=wrap;rounded=0;labelBackgroundColor=default;fontSize=18;" parent="1" vertex="1">
          <mxGeometry x="-751.958347826087" y="1250.4569398907101" width="419.68608695652176" height="40.61475409836065" as="geometry" />
        </mxCell>
        <mxCell id="j9J7J6AVy67X-4ACV26y-46" value="&lt;div style=&quot;text-align: left; font-size: 18px;&quot;&gt;&lt;br style=&quot;font-size: 18px;&quot;&gt;&lt;/div&gt;&lt;div style=&quot;text-align: left; font-size: 18px;&quot;&gt;Q :&amp;nbsp;&lt;span style=&quot;font-family: &amp;quot;Helvetica Neue&amp;quot;; font-size: 18px;&quot;&gt;Explain your proposed solution&lt;/span&gt;&lt;/div&gt;&lt;span style=&quot;font-family: &amp;quot;Helvetica Neue&amp;quot;; font-size: 18px;&quot;&gt;&lt;div style=&quot;text-align: left; font-size: 18px;&quot;&gt;&lt;span style=&quot;font-family: Helvetica; font-size: 18px;&quot;&gt;&lt;br style=&quot;font-size: 18px;&quot;&gt;&lt;/span&gt;&lt;/div&gt;&lt;div style=&quot;text-align: left; font-size: 18px;&quot;&gt;&lt;span style=&quot;font-family: Helvetica; font-size: 18px;&quot;&gt;A: &amp;nbsp;saya membuat konsep desain monitoring untuk maintenance container yg sudah berjalan secara simple dan reliable&lt;/span&gt;&lt;/div&gt;&lt;/span&gt;" style="text;html=1;strokeColor=none;fillColor=none;align=center;verticalAlign=middle;whiteSpace=wrap;rounded=0;labelBackgroundColor=default;fontSize=18;" parent="1" vertex="1">
          <mxGeometry x="-1435.5326086956522" y="1122.485724043716" width="419.68608695652176" height="40.61475409836065" as="geometry" />
        </mxCell>
        <mxCell id="j9J7J6AVy67X-4ACV26y-47" value="1." style="text;html=1;align=center;verticalAlign=middle;resizable=0;points=[];autosize=1;strokeColor=none;fillColor=none;labelBackgroundColor=default;fontSize=18;" parent="1" vertex="1">
          <mxGeometry x="-1509.9978864333686" y="1088.5317542098805" width="40" height="30" as="geometry" />
        </mxCell>
        <mxCell id="j9J7J6AVy67X-4ACV26y-48" value="&lt;div style=&quot;font-size: 18px;&quot;&gt;&lt;font style=&quot;font-size: 18px;&quot;&gt;&lt;br style=&quot;font-size: 18px;&quot;&gt;&lt;/font&gt;&lt;/div&gt;&lt;div style=&quot;font-size: 18px;&quot;&gt;&lt;font style=&quot;font-size: 18px;&quot;&gt;Q : What kind of tools do you use&lt;/font&gt;&lt;/div&gt;&lt;font style=&quot;font-size: 18px;&quot;&gt;&lt;span style=&quot;font-family: &amp;quot;Helvetica Neue&amp;quot;; font-size: 18px;&quot;&gt;&lt;div style=&quot;font-size: 18px;&quot;&gt;&lt;span style=&quot;font-family: Helvetica; font-size: 18px;&quot;&gt;&lt;br style=&quot;font-size: 18px;&quot;&gt;&lt;/span&gt;&lt;/div&gt;&lt;div style=&quot;font-size: 18px;&quot;&gt;&lt;span style=&quot;font-family: Helvetica; font-size: 18px;&quot;&gt;A: &amp;nbsp;saya menggunakan tools sebagai berikut , Prometheus, Grafana ,cAdvisor, NodeExporter and AlertManager&lt;/span&gt;&lt;/div&gt;&lt;/span&gt;&lt;br style=&quot;font-size: 18px;&quot;&gt;&lt;/font&gt;" style="text;html=1;strokeColor=none;fillColor=none;align=left;verticalAlign=middle;whiteSpace=wrap;rounded=0;labelBackgroundColor=default;fontSize=18;" parent="1" vertex="1">
          <mxGeometry x="-1435.5326086956522" y="1289.0716939890708" width="419.68608695652176" height="40.61475409836065" as="geometry" />
        </mxCell>
        <mxCell id="j9J7J6AVy67X-4ACV26y-49" value="2." style="text;html=1;align=center;verticalAlign=middle;resizable=0;points=[];autosize=1;strokeColor=none;fillColor=none;labelBackgroundColor=default;fontSize=18;" parent="1" vertex="1">
          <mxGeometry x="-1509.9978864333686" y="1250.9907706033232" width="40" height="30" as="geometry" />
        </mxCell>
        <mxCell id="j9J7J6AVy67X-4ACV26y-50" value="&lt;p style=&quot;font-size: 18px;&quot;&gt;&lt;font style=&quot;font-size: 18px;&quot;&gt;&lt;br style=&quot;font-size: 18px;&quot;&gt;&lt;/font&gt;&lt;font style=&quot;font-size: 18px;&quot;&gt;Q : Draw the system architecture with detail flow and relationship&lt;/font&gt;&lt;/p&gt;&lt;p style=&quot;font-size: 18px;&quot;&gt;&lt;br style=&quot;font-size: 18px;&quot;&gt;A: &amp;nbsp;saya sudah membuat gambar sistem arsitektur dengan alur detail nya :&lt;br style=&quot;font-size: 18px;&quot;&gt;- containers docker di monitoring oleh node expoter dan cadvisor lalu di ambil data metric &amp;nbsp;&lt;br style=&quot;font-size: 18px;&quot;&gt;- lalu prometheus collect scape metrics dari node expoter dan cadvisor&lt;br style=&quot;font-size: 18px;&quot;&gt;- di lanjutkan lagi grafana collect dengan query ke prometheus metric database , untuk di visualisaikan kedalam grafana agar lebih mudah dan readable saat cek monitoring semua aktifitas yg terjadi&lt;br style=&quot;font-size: 18px;&quot;&gt;- lalu prometheus bisa langung push/mengirim notif ke tool alert manager jika terjadi contoh :&amp;nbsp;&lt;span style=&quot;caret-color: rgb(68, 68, 68); font-size: 18px;&quot;&gt;ALERT high_cpu_load ,&amp;nbsp;&lt;/span&gt;&lt;span style=&quot;caret-color: rgb(68, 68, 68); font-size: 18px;&quot;&gt;ALERT high_memory_load,&amp;nbsp;&lt;/span&gt;&lt;span style=&quot;caret-color: rgb(68, 68, 68); font-size: 18px;&quot;&gt;ALERT monitor_service_down and etc. semua notif bisa di kirim otomatis langsung ke email , slack dan pushover&lt;/span&gt;&lt;/p&gt;" style="text;html=1;strokeColor=none;fillColor=none;align=left;verticalAlign=middle;whiteSpace=wrap;rounded=0;labelBackgroundColor=default;fontSize=18;" parent="1" vertex="1">
          <mxGeometry x="-1435.5326086956522" y="1600.9132240437157" width="419.68608695652176" height="40.61475409836065" as="geometry" />
        </mxCell>
        <mxCell id="j9J7J6AVy67X-4ACV26y-51" value="3." style="text;html=1;align=center;verticalAlign=middle;resizable=0;points=[];autosize=1;strokeColor=none;fillColor=none;labelBackgroundColor=default;fontSize=18;" parent="1" vertex="1">
          <mxGeometry x="-1509.9978864333686" y="1413.4497869967659" width="40" height="30" as="geometry" />
        </mxCell>
        <mxCell id="j9J7J6AVy67X-4ACV26y-52" value="" style="endArrow=none;html=1;rounded=0;fontFamily=Helvetica;fontSize=12;fontColor=#000000;strokeWidth=8;" parent="1" edge="1">
          <mxGeometry width="50" height="50" relative="1" as="geometry">
            <mxPoint x="-879.1100869565217" y="1828.1399999999999" as="sourcePoint" />
            <mxPoint x="-877.7562608695652" y="1069.9979234972675" as="targetPoint" />
          </mxGeometry>
        </mxCell>
        <mxCell id="j9J7J6AVy67X-4ACV26y-53" value="4." style="text;html=1;align=center;verticalAlign=middle;resizable=0;points=[];autosize=1;strokeColor=none;fillColor=none;labelBackgroundColor=default;fontSize=18;" parent="1" vertex="1">
          <mxGeometry x="-808.7159733898903" y="1085.8241039366562" width="40" height="30" as="geometry" />
        </mxCell>
        <mxCell id="j9J7J6AVy67X-4ACV26y-55" value="5." style="text;html=1;align=center;verticalAlign=middle;resizable=0;points=[];autosize=1;strokeColor=none;fillColor=none;labelBackgroundColor=default;fontSize=18;" parent="1" vertex="1">
          <mxGeometry x="-808.7159733898903" y="1521.7557979257272" width="40" height="30" as="geometry" />
        </mxCell>
        <mxCell id="j9J7J6AVy67X-4ACV26y-56" value="&lt;div style=&quot;font-size: 18px;&quot;&gt;&lt;br style=&quot;font-size: 18px;&quot;&gt;&lt;/div&gt;&lt;div style=&quot;font-size: 18px;&quot;&gt;Q :&amp;nbsp;&lt;span style=&quot;font-family: &amp;quot;Helvetica Neue&amp;quot;; font-size: 18px;&quot;&gt;Explain the cost wise&lt;/span&gt;&lt;/div&gt;&lt;span style=&quot;font-family: &amp;quot;Helvetica Neue&amp;quot;; font-size: 18px;&quot;&gt;&lt;div style=&quot;font-size: 18px;&quot;&gt;&lt;span style=&quot;font-family: Helvetica; font-size: 18px;&quot;&gt;&lt;br style=&quot;font-size: 18px;&quot;&gt;&lt;/span&gt;&lt;/div&gt;&lt;div style=&quot;font-size: 18px;&quot;&gt;&lt;div style=&quot;font-size: 18px;&quot;&gt;&lt;div style=&quot;font-size: 18px;&quot;&gt;&lt;div style=&quot;font-size: 18px;&quot;&gt;&lt;span style=&quot;font-family: Helvetica; font-size: 18px;&quot;&gt;A: &amp;nbsp;&lt;/span&gt;Reduce costs and increase performance with query caching in Grafana Cloud&lt;/div&gt;&lt;div style=&quot;font-size: 18px;&quot;&gt;&lt;br style=&quot;font-size: 18px;&quot;&gt;&lt;/div&gt;&lt;/div&gt;&lt;/div&gt;&lt;/div&gt;&lt;/span&gt;" style="text;html=1;strokeColor=none;fillColor=none;align=left;verticalAlign=middle;whiteSpace=wrap;rounded=0;labelBackgroundColor=default;fontSize=18;" parent="1" vertex="1">
          <mxGeometry x="-736.9583478260869" y="1543.8367213114752" width="419.68608695652176" height="40.61475409836065" as="geometry" />
        </mxCell>
      </root>
    </mxGraphModel>
  </diagram>
</mxfile>
